<?xml version="1.0" encoding="UTF-8"?>
<svg id="Layer_2" data-name="Layer 2" xmlns="http://www.w3.org/2000/svg" viewBox="0 0 321.22 100">
  <defs>
    <style>
      .cls-1 {
        fill: #05d;
      }

      .cls-2 {
        fill: #f5f5f5;
      }
    </style>
  </defs>
  <g id="Layer_1-2" data-name="Layer 1">
    <g>
      <g>
        <g>
          <g>
            <path class="cls-2" d="M5.3,66.07V28.88c0-2.47-1.38-3.71-4.15-3.71H0v-5.83h11.13c3.71,0,5.56,1.71,5.56,5.12v41.6H5.3Z"/>
            <path class="cls-2" d="M50.43,14.22v42.31c0,1.65.5,2.71,1.5,3.18.65.35,1.88.53,3.71.53v5.83h-11.75c-3.71,0-5.56-1.71-5.56-5.12V14.22h-16.16V4.77h44.6v9.45h-16.34Z"/>
            <path class="cls-2" d="M102.99,43.19v3.62h-31.53c.29,3.74,1.75,6.69,4.37,8.86,2.62,2.16,6.05,3.24,10.29,3.24,4.65,0,9.04-1.06,13.16-3.18v8.83c-4.36,1.77-9.42,2.65-15.19,2.65-7.48,0-13.32-2.15-17.53-6.45-4.21-4.3-6.32-10.25-6.32-17.84,0-6.77,2.05-12.26,6.14-16.47,4.09-4.21,9.44-6.32,16.03-6.32s11.53,2.02,15.15,6.05c3.62,4.03,5.43,9.7,5.43,17ZM92.56,39.66c-.3-3.83-1.35-6.79-3.18-8.88-1.83-2.09-4.18-3.14-7.07-3.14s-5.39,1.05-7.33,3.14c-1.94,2.09-3.12,5.05-3.53,8.88h21.11Z"/>
            <path class="cls-2" d="M145.29,22.44l-.88,9.01c-3.89-1.53-6.89-2.3-9.01-2.3-4.36,0-7.85,1.34-10.47,4.02-2.62,2.68-3.93,6.14-3.93,10.38s1.31,7.82,3.93,10.56c2.62,2.74,6.05,4.11,10.29,4.11,2.88,0,6.18-.97,9.89-2.92l.44,9.19c-5.36,1.82-9.54,2.74-12.54,2.74-7.36,0-13.2-2.18-17.53-6.54-4.33-4.36-6.49-10.16-6.49-17.4,0-6.59,2.22-12.1,6.67-16.52,4.45-4.42,10.2-6.62,17.27-6.62,1.94,0,6.06.77,12.37,2.3Z"/>
            <path class="cls-2" d="M150.15,5.83V0h11.13c3.71,0,5.56,1.71,5.56,5.12v22.88c3.23-5.24,8.19-7.86,14.88-7.86,10.63,0,15.94,6.42,15.94,19.26v26.67h-11.48v-24.2c0-8.07-2.94-12.1-8.83-12.1-3.59,0-6.3,1.5-8.13,4.51-1.59,2.53-2.39,5.71-2.39,9.54v22.26h-11.48V9.54c0-1.65-.53-2.74-1.59-3.27-.71-.35-1.91-.5-3.62-.44Z"/>
            <path class="cls-2" d="M238.65,22.7l-.88,8.48c-3.95-2.06-7.8-3.09-11.57-3.09-4.3,0-6.45,1.36-6.45,4.06,0,1.47.74,2.71,2.21,3.71.76.53,2.77,1.5,6.01,2.91,4.47,2,7.63,3.92,9.45,5.74,2.12,2.18,3.18,4.89,3.18,8.13,0,4.18-1.68,7.54-5.03,10.07-3.36,2.53-8.01,3.8-13.96,3.8-5.01,0-9.63-.76-13.87-2.3l.62-8.83c4.36,2.12,8.74,3.18,13.16,3.18,4.77,0,7.15-1.44,7.15-4.33,0-1.53-.79-2.91-2.38-4.15-1.06-.77-3.3-2-6.71-3.71-4-2-6.77-3.8-8.3-5.39-2-2.06-3-4.56-3-7.51,0-3.83,1.63-7.01,4.9-9.54,3.27-2.53,7.67-3.8,13.2-3.8,2.71,0,6.8.85,12.28,2.56Z"/>
          </g>
          <circle class="cls-2" cx="8.35" cy="10.03" r="5.87"/>
        </g>
        <g>
          <path class="cls-1" d="M315.42,55.29l-10.96-8.07c1.92-2.61,2.94-5.71,2.94-8.97v-15.16h13.61v15.16c0,6.18-1.93,12.07-5.59,17.04Z"/>
          <path class="cls-2" d="M313.97,45.78c-3.03-2.23-7.29-1.58-9.52,1.44-2.88,3.91-7.31,6.16-12.16,6.17l-15.81.04V15.93h23.96V2.32h-30.77c-3.76,0-6.81,3.05-6.81,6.81v51.14c0,1.81.72,3.54,2,4.82,1.28,1.27,3,1.99,4.81,1.99h.02l22.64-.06c4.57-.01,9.11-1.12,13.14-3.21,3.9-2.02,7.33-4.96,9.94-8.5,2.23-3.03,1.58-7.29-1.44-9.52Z"/>
          <circle class="cls-1" cx="314.2" cy="10.15" r="7.02"/>
        </g>
      </g>
      <g>
        <path class="cls-2" d="M3.36,99.78v-14.9h4.91c4.95,0,6.68,2.52,6.68,7.45s-1.73,7.45-6.68,7.45H3.36ZM5.55,86.85v10.96h2.72c3.42,0,4.49-1.29,4.49-5.48s-1.07-5.48-4.49-5.48h-2.72Z"/>
        <path class="cls-2" d="M28.67,99.78h-2.3l-1.07-3.51h-6.09l-1.07,3.51h-2.3l4.69-14.9h3.46l4.69,14.9ZM22.07,86.92l-2.26,7.39h4.87l-2.26-7.39h-.35Z"/>
        <path class="cls-2" d="M34.57,86.85v12.93h-2.19v-12.93h-4.58v-1.97h11.35v1.97h-4.58Z"/>
        <path class="cls-2" d="M51.12,99.78h-2.3l-1.07-3.51h-6.09l-1.07,3.51h-2.3l4.69-14.9h3.46l4.69,14.9ZM44.52,86.92l-2.26,7.39h4.87l-2.26-7.39h-.35Z"/>
        <path class="cls-2" d="M63.61,84.88v14.9h-2.19v-14.9h2.19Z"/>
        <path class="cls-2" d="M68.65,89.13v10.65h-2.19v-14.9h2.19l7.1,10.65h.35v-10.65h2.19v14.9h-2.19l-7.1-10.65h-.35Z"/>
        <path class="cls-2" d="M87.26,86.85v12.93h-2.19v-12.93h-4.58v-1.97h11.35v1.97h-4.58Z"/>
        <path class="cls-2" d="M103.42,97.81v1.97h-9.6v-14.9h9.6v1.97h-7.41v4.27h5.65v1.97h-5.65v4.71h7.41Z"/>
        <path class="cls-2" d="M114.11,97.81v1.97h-8.28v-14.9h2.19v12.93h6.09Z"/>
        <path class="cls-2" d="M124.59,97.81v1.97h-8.28v-14.9h2.19v12.93h6.09Z"/>
        <path class="cls-2" d="M128.98,84.88v14.9h-2.19v-14.9h2.19Z"/>
        <path class="cls-2" d="M131.17,92.33c0-3.95,1.84-7.67,6.62-7.67,3.64,0,5.63,2.17,5.85,5.24h-2.17c-.18-1.93-1.14-3.27-3.68-3.27-3.16,0-4.43,1.51-4.43,5.7s1.49,5.7,4.65,5.7c2.54,0,3.66-1.77,3.88-3.7h-5.74v-1.97h7.93v7.43h-2.19v-2.08h-.35c-.39.86-1.25,2.3-3.97,2.3-4.56,0-6.4-3.73-6.4-7.67Z"/>
        <path class="cls-2" d="M156.31,97.81v1.97h-9.6v-14.9h9.6v1.97h-7.41v4.27h5.65v1.97h-5.65v4.71h7.41Z"/>
        <path class="cls-2" d="M160.91,89.13v10.65h-2.19v-14.9h2.19l7.1,10.65h.35v-10.65h2.19v14.9h-2.19l-7.1-10.65h-.35Z"/>
        <path class="cls-2" d="M172.75,92.33c0-3.95,1.84-7.67,6.62-7.67,4.08,0,6.16,2.61,6.29,5.9h-2.19c-.37-2.59-1.12-3.92-4.1-3.92-3.16,0-4.43,1.73-4.43,5.7s1.27,5.7,4.43,5.7c2.98,0,3.73-1.34,4.1-3.92h2.19c-.13,3.29-2.21,5.9-6.29,5.9-4.78,0-6.62-3.73-6.62-7.67Z"/>
        <path class="cls-2" d="M197.67,97.81v1.97h-9.6v-14.9h9.6v1.97h-7.41v4.27h5.65v1.97h-5.65v4.71h7.41Z"/>
      </g>
    </g>
  </g>
</svg>